<svg height="512pt" viewBox="0 -79 512 512" width="512pt" xmlns="http://www.w3.org/2000/svg"><path d="m388.414062 114.757812c0-5.296874-3.53125-8.828124-8.828124-8.828124h-370.757813c-5.296875 0-8.828125 3.53125-8.828125 8.828124v229.519532c0 5.296875 3.53125 8.824218 8.828125 8.824218h370.757813c5.296874 0 8.828124-3.527343 8.828124-8.824218zm0 0" fill="#4c8056"/><path d="m423.722656 79.449219c0-5.296875-3.53125-8.828125-8.824218-8.828125h-370.761719c-5.296875 0-8.828125 3.53125-8.828125 8.828125v229.515625c0 5.296875 3.53125 8.828125 8.828125 8.828125h370.761719c5.292968 0 8.824218-3.53125 8.824218-8.828125zm0 0" fill="#60ac70"/><path d="m512 35.308594h-432.550781c-5.296875 0-8.828125 3.53125-8.828125 8.828125v229.519531c0 5.296875 3.53125 8.828125 8.828125 8.828125h414.894531c9.710938 0 17.65625-7.945313 17.65625-17.65625zm0 0" fill="#71c285"/><path d="m141.242188 70.621094c0 19.421875-15.890626 35.308594-35.3125 35.308594v105.933593c19.421874 0 35.3125 15.886719 35.3125 35.308594h300.136718v-176.550781zm0 0" fill="#60ac70"/><path d="m379.585938 158.898438c0 48.75-39.523438 88.273437-88.277344 88.273437-48.75 0-88.273438-39.523437-88.273438-88.273437 0-48.753907 39.523438-88.277344 88.273438-88.277344 48.753906 0 88.277344 39.523437 88.277344 88.277344zm0 0" fill="#4c8056"/><path d="m308.964844 203.035156h-44.136719c-5.296875 0-8.828125-3.53125-8.828125-8.828125s3.53125-8.828125 8.828125-8.828125h44.136719c5.296875 0 8.828125-3.53125 8.828125-8.828125s-3.53125-8.828125-8.828125-8.828125h-35.308594c-15.007812 0-26.484375-11.472656-26.484375-26.480468 0-15.007813 11.476563-26.484376 26.484375-26.484376h44.136719c5.296875 0 8.828125 3.53125 8.828125 8.828126 0 5.296874-3.53125 8.828124-8.828125 8.828124h-44.136719c-5.296875 0-8.828125 3.53125-8.828125 8.828126 0 5.296874 3.53125 8.828124 8.828125 8.828124h35.308594c15.007812 0 26.484375 11.472657 26.484375 26.480469 0 15.007813-12.359375 26.484375-26.484375 26.484375zm0 0" fill="#71c285"/><path d="m291.308594 220.691406c-5.292969 0-8.824219-3.53125-8.824219-8.828125v-105.933593c0-5.296876 3.53125-8.828126 8.824219-8.828126 5.296875 0 8.828125 3.53125 8.828125 8.828126v105.933593c0 5.296875-4.414063 8.828125-8.828125 8.828125zm0 0" fill="#71c285"/><path d="m494.34375 0h-17.652344v247.171875h17.652344c9.710938 0 17.65625 7.945313 17.65625 17.65625v-247.171875c0-9.710938-7.945312-17.65625-17.65625-17.65625zm0 0" fill="#60ac70"/></svg>