<svg id="Capa_1" enable-background="new 0 0 512 512" height="512" viewBox="0 0 512 512" width="512" xmlns="http://www.w3.org/2000/svg" xmlns:xlink="http://www.w3.org/1999/xlink"><linearGradient id="lg1"><stop offset="0" stop-color="#ff2f2b"/><stop offset="1" stop-color="#ffbdab"/></linearGradient><linearGradient id="SVGID_1_" gradientUnits="userSpaceOnUse" x1="74.981" x2="437.02" xlink:href="#lg1" y1="437.019" y2="74.98"/><radialGradient id="SVGID_2_" cx="256.001" cy="256" gradientUnits="userSpaceOnUse" r="256"><stop offset="0" stop-color="#ff2f2b"/><stop offset=".1344" stop-color="#ff3935" stop-opacity=".866"/><stop offset=".3677" stop-color="#ff564e" stop-opacity=".632"/><stop offset=".6719" stop-color="#ff8478" stop-opacity=".328"/><stop offset="1" stop-color="#ffbdab" stop-opacity="0"/></radialGradient><linearGradient id="lg2"><stop offset="0" stop-color="#ffb5d3"/><stop offset=".1651" stop-color="#ffc2db"/><stop offset="1" stop-color="#fff"/></linearGradient><linearGradient id="SVGID_3_" gradientUnits="userSpaceOnUse" x1="259.804" x2="424.539" xlink:href="#lg2" y1="252.196" y2="87.462"/><linearGradient id="SVGID_4_" gradientUnits="userSpaceOnUse" x1="54.084" x2="256.126" xlink:href="#lg2" y1="247.655" y2="45.613"/><linearGradient id="SVGID_5_" gradientUnits="userSpaceOnUse" x1="65.143" x2="272.422" xlink:href="#lg2" y1="446.857" y2="239.578"/><linearGradient id="SVGID_6_" gradientUnits="userSpaceOnUse" x1="251.065" x2="491.565" xlink:href="#lg2" y1="471.196" y2="230.697"/><linearGradient id="lg3"><stop offset="0" stop-color="#ff2f2b"/><stop offset="1" stop-color="#ff6e70"/></linearGradient><linearGradient id="SVGID_7_" gradientUnits="userSpaceOnUse" x1="115.784" x2="305.534" xlink:href="#lg3" y1="236.951" y2="47.201"/><linearGradient id="SVGID_8_" gradientUnits="userSpaceOnUse" x1="8.563" x2="175.691" xlink:href="#lg3" y1="344.172" y2="177.044"/><linearGradient id="SVGID_9_" gradientUnits="userSpaceOnUse" x1="158.926" x2="381.509" xlink:href="#lg3" y1="512.339" y2="289.757"/><linearGradient id="SVGID_10_" gradientUnits="userSpaceOnUse" x1="299.359" x2="474.79" xlink:href="#lg3" y1="371.906" y2="196.475"/><linearGradient id="SVGID_11_" gradientUnits="userSpaceOnUse" x1="-16.552" x2="396.591" y1="528.552" y2="115.409"><stop offset="0" stop-color="#ff2f2b"/><stop offset="1" stop-color="#ffc8e3"/></linearGradient><linearGradient id="SVGID_12_" gradientUnits="userSpaceOnUse" x1="74.178" x2="442.187" xlink:href="#lg1" y1="437.822" y2="69.813"/><linearGradient id="SVGID_13_" gradientUnits="userSpaceOnUse" x1="91.282" x2="418.265" xlink:href="#lg2" y1="420.718" y2="93.735"/><linearGradient id="SVGID_14_" gradientUnits="userSpaceOnUse" x1="168.809" x2="412.125" xlink:href="#lg2" y1="343.803" y2="100.488"/><g><circle cx="256" cy="256" fill="url(#SVGID_1_)" r="256"/><circle cx="256" cy="256" fill="url(#SVGID_2_)" r="256"/><path d="m396.325 115.675c-19.506-19.5-41.666-34.493-65.034-44.665-19.6 19.952-39.538 40.159-59.675 60.484 36 36.334 72.556 72.89 108.89 108.89 20.325-20.137 40.532-40.075 60.484-59.675-10.172-23.369-25.165-45.527-44.665-65.034z" fill="url(#SVGID_3_)"/><path d="m115.675 115.675c-19.5 19.506-34.492 41.665-44.665 65.035 19.952 19.6 40.159 39.538 60.484 59.675 36.334-36 72.89-72.556 108.89-108.89-20.137-20.325-40.074-40.532-59.674-60.484-23.371 10.171-45.53 25.165-65.035 44.664z" fill="url(#SVGID_4_)"/><path d="m115.675 396.325c19.506 19.5 41.665 34.493 65.035 44.665 19.6-19.952 39.538-40.159 59.674-60.484-36-36.334-72.556-72.89-108.89-108.89-20.325 20.137-40.532 40.075-60.484 59.675 10.171 23.369 25.166 45.528 44.665 65.034z" fill="url(#SVGID_5_)"/><path d="m396.325 396.325c19.5-19.507 34.494-41.665 44.665-65.035-19.952-19.6-40.159-39.538-60.484-59.675-36.334 36-72.89 72.556-108.89 108.89 20.137 20.325 40.074 40.532 59.675 60.484 23.369-10.171 45.528-25.164 65.034-44.664z" fill="url(#SVGID_6_)"/><path d="m331.291 71.01c-48.461-21.204-102.12-21.204-150.582 0 11.188 28.51 22.723 57.163 34.443 85.894 27.232-.135 54.463-.135 81.695 0 11.721-28.731 23.256-57.384 34.444-85.894z" fill="url(#SVGID_7_)"/><path d="m71.01 180.709c-21.204 48.461-21.204 102.12 0 150.582 28.51-11.188 57.163-22.723 85.894-34.443-.135-27.232-.135-54.463 0-81.695-28.731-11.721-57.384-23.256-85.894-34.444z" fill="url(#SVGID_8_)"/><path d="m180.709 440.99c48.462 21.204 102.12 21.204 150.582 0-11.188-28.51-22.723-57.163-34.444-85.894-27.232.135-54.463.135-81.695 0-11.72 28.731-23.255 57.384-34.443 85.894z" fill="url(#SVGID_9_)"/><path d="m440.99 331.291c21.204-48.461 21.204-102.12 0-150.582-28.51 11.188-57.163 22.723-85.894 34.443.135 27.232.135 54.463 0 81.695 28.731 11.721 57.385 23.256 85.894 34.444z" fill="url(#SVGID_10_)"/><circle cx="256" cy="256" fill="url(#SVGID_11_)" r="139.4"/><path d="m256 131.975c-67.589.132-123.893 56.436-124.025 124.025.131 67.589 56.437 123.893 124.025 124.025 67.589-.131 123.893-56.436 124.025-124.025-.131-67.589-56.437-123.894-124.025-124.025z" fill="url(#SVGID_12_)"/><path d="m256 162.725c-51.128.056-93.219 42.146-93.275 93.275.057 51.129 42.146 93.219 93.275 93.275 51.127-.056 93.22-42.147 93.275-93.275-.056-51.128-42.146-93.219-93.275-93.275z" fill="url(#SVGID_13_)"/><path d="m271.339 318.516c-51.312.018-93.318-41.924-93.194-93.153.026-8.835 1.298-17.386 3.647-25.496-11.932 15.662-19.069 35.089-19.067 56.133.057 51.129 42.147 93.219 93.275 93.275 42.357-.012 78.42-28.946 89.69-67.828-17.103 22.384-44.084 37.034-74.351 37.069z" fill="url(#SVGID_14_)"/></g></svg>