<svg id="Capa_1" enable-background="new 0 0 497 497" height="512" viewBox="0 0 497 497" width="512" xmlns="http://www.w3.org/2000/svg"><g><g><path d="m115.972 386.116c-5.391-1.903-10.156-5.665-13.238-11.005l-99.4-172.166c-6.862-11.886-2.79-27.084 9.096-33.946l286.942-165.666c11.885-6.862 27.083-2.79 33.946 9.096l99.4 172.166c6.862 11.885 2.79 27.083-9.096 33.946l-51.89 29.959z" fill="#ffc200"/><path d="m432.718 184.595-99.4-172.166c-6.685-11.58-21.282-15.738-33.02-9.599 4.049 2.109 7.568 5.352 10.02 9.599l99.4 172.166c6.862 11.885 2.79 27.083-9.096 33.946l-51.89 29.959-242.988 130.745c2.832 3.172 6.363 5.508 10.228 6.872l255.761-137.617 51.89-29.959c11.885-6.862 15.957-22.06 9.095-33.946z" fill="#fe9900"/><path d="m-1.482 126.989h381.033v33.133h-381.033z" fill="#004a84" transform="matrix(.866 -.5 .5 .866 -46.452 113.75)"/><g><path d="m303.303 199.864c-2.592 0-5.113-1.345-6.502-3.751-2.071-3.587-.842-8.174 2.745-10.245l71.736-41.417c3.585-2.071 8.175-.842 10.245 2.745 2.071 3.587.842 8.174-2.745 10.245l-71.736 41.416c-1.181.683-2.471 1.007-3.743 1.007z" fill="#003165"/></g><g><path d="m362.911 203.709c-2.592 0-5.112-1.345-6.502-3.751-2.071-3.587-.842-8.174 2.745-10.245l28.694-16.567c3.585-2.071 8.174-.842 10.245 2.745s.842 8.174-2.745 10.245l-28.694 16.567c-1.18.682-2.47 1.006-3.743 1.006z" fill="#003165"/></g></g><path d="m497 472.15c0 13.724-11.126 24.85-24.85 24.85h-331.333c-13.724 0-24.85-11.126-24.85-24.85v-198.801c0-13.724 11.126-24.85 24.85-24.85h331.333c13.724 0 24.85 11.126 24.85 24.85z" fill="#0068ae"/><path d="m472.15 248.5h-23c13.724 0 24.85 11.126 24.85 24.85v198.8c0 13.724-11.126 24.85-24.85 24.85h23c13.724 0 24.85-11.126 24.85-24.85v-198.801c0-13.724-11.126-24.849-24.85-24.849z" fill="#004a84"/><path d="m355.9 331.333h83.4c4.418 0 8-3.582 8-8v-17.133c0-4.418-3.582-8-8-8h-83.4c-4.418 0-8 3.582-8 8v17.133c0 4.418 3.581 8 8 8z" fill="#9be6ff"/><path d="m439.3 298.2h-22.748c4.418 0 8 3.582 8 8v17.133c0 4.418-3.582 8-8 8h22.748c4.418 0 8-3.582 8-8v-17.133c0-4.419-3.582-8-8-8z" fill="#55cbfc"/><g><path d="m223.933 347.899h-66.833c-4.418 0-8-3.582-8-8v-50.266c0-4.418 3.582-8 8-8h66.833c4.418 0 8 3.582 8 8v50.266c0 4.419-3.582 8-8 8z" fill="#ffc200"/><path d="m149.1 322.266h82.833v-15h-33.917v-25.633h-15v25.633h-33.916z" fill="#fe9900"/></g><g><path d="m182.233 438.232h-33.133c-4.142 0-7.5-3.358-7.5-7.5s3.358-7.5 7.5-7.5h33.133c4.142 0 7.5 3.358 7.5 7.5 0 4.143-3.358 7.5-7.5 7.5z" fill="#f3edea"/></g><g><path d="m314.767 438.232h-99.4c-4.142 0-7.5-3.358-7.5-7.5s3.358-7.5 7.5-7.5h99.4c4.143 0 7.5 3.358 7.5 7.5 0 4.143-3.358 7.5-7.5 7.5z" fill="#f3edea"/></g><g><path d="m397.6 438.232h-49.7c-4.143 0-7.5-3.358-7.5-7.5s3.357-7.5 7.5-7.5h49.7c4.143 0 7.5 3.358 7.5 7.5 0 4.143-3.358 7.5-7.5 7.5z" fill="#f3edea"/></g><path d="m335.442 36.71h19.919v33.133h-19.919z" fill="#003165" transform="matrix(.866 -.5 .5 .866 19.637 179.839)"/></g></svg>