<svg id="Capa_1" enable-background="new 0 0 510 510" height="512" viewBox="0 0 510 510" width="512" xmlns="http://www.w3.org/2000/svg" xmlns:xlink="http://www.w3.org/1999/xlink"><linearGradient id="lg1"><stop offset="0" stop-color="#cdec7a"/><stop offset=".2157" stop-color="#b0e995"/><stop offset=".5613" stop-color="#87e4bb"/><stop offset=".8347" stop-color="#6ee1d2"/><stop offset="1" stop-color="#65e0db"/></linearGradient><linearGradient id="SVGID_1_" gradientUnits="userSpaceOnUse" x1="284.296" x2="410.626" xlink:href="#lg1" y1="129.855" y2="291.948"/><linearGradient id="lg2"><stop offset="0" stop-color="#cdec7a" stop-opacity="0"/><stop offset=".2354" stop-color="#9ad57d" stop-opacity=".235"/><stop offset=".6035" stop-color="#51b482" stop-opacity=".604"/><stop offset=".8679" stop-color="#239f85" stop-opacity=".868"/><stop offset="1" stop-color="#119786"/></linearGradient><linearGradient id="SVGID_2_" gradientUnits="userSpaceOnUse" x1="349.224" x2="278.89" xlink:href="#lg2" y1="478.525" y2="-122.667"/><linearGradient id="SVGID_3_" gradientUnits="userSpaceOnUse" x1="256.934" x2="374.065" xlink:href="#lg1" y1="110.532" y2="227.664"/><linearGradient id="SVGID_4_" gradientUnits="userSpaceOnUse" x1="312.696" x2="312.696" xlink:href="#lg2" y1="247.437" y2="305.441"/><linearGradient id="SVGID_5_" gradientUnits="userSpaceOnUse" x1="198.462" x2="321.907" xlink:href="#lg1" y1="82.896" y2="234.607"/><linearGradient id="SVGID_6_" gradientUnits="userSpaceOnUse" x1="327.816" x2="257.481" xlink:href="#lg2" y1="509.206" y2="-91.986"/><linearGradient id="SVGID_7_" gradientUnits="userSpaceOnUse" x1="235.525" x2="352.657" xlink:href="#lg1" y1="141.214" y2="258.345"/><linearGradient id="SVGID_8_" gradientUnits="userSpaceOnUse" x1="291.287" x2="291.287" xlink:href="#lg2" y1="278.119" y2="336.122"/><linearGradient id="SVGID_9_" gradientUnits="userSpaceOnUse" x1="241.964" x2="307.719" xlink:href="#lg1" y1="45.249" y2="474.924"/><linearGradient id="SVGID_10_" gradientUnits="userSpaceOnUse" x1="306.407" x2="236.072" xlink:href="#lg2" y1="539.888" y2="-61.304"/><linearGradient id="SVGID_11_" gradientUnits="userSpaceOnUse" x1="214.117" x2="331.248" xlink:href="#lg1" y1="171.895" y2="289.026"/><linearGradient id="SVGID_12_" gradientUnits="userSpaceOnUse" x1="269.878" x2="269.878" xlink:href="#lg2" y1="308.8" y2="366.804"/><linearGradient id="SVGID_13_" gradientUnits="userSpaceOnUse" x1="467.313" x2="314.463" xlink:href="#lg2" y1="418.48" y2="319.012"/><linearGradient id="SVGID_14_" gradientUnits="userSpaceOnUse" x1="149.002" x2="296.285" y1="175.541" y2="554.905"><stop offset="0" stop-color="#18cefb"/><stop offset=".2969" stop-color="#2bb9f9"/><stop offset=".7345" stop-color="#42a0f7"/><stop offset="1" stop-color="#4a97f6"/></linearGradient><linearGradient id="SVGID_15_" gradientUnits="userSpaceOnUse" x1="208.338" x2="208.338" y1="420.673" y2="463.608"><stop offset="0" stop-color="#4a97f6" stop-opacity="0"/><stop offset="1" stop-color="#0469bb"/></linearGradient><linearGradient id="SVGID_16_" gradientUnits="userSpaceOnUse" x1="174.208" x2="240.721" y1="216.169" y2="336.13"><stop offset="0" stop-color="#8a7889"/><stop offset="1" stop-color="#6e566e"/></linearGradient><linearGradient id="SVGID_17_" gradientUnits="userSpaceOnUse" x1="53.806" x2="69.147" y1="384.963" y2="412.632"><stop offset="0" stop-color="#ffa936"/><stop offset=".4112" stop-color="#ff8548"/><stop offset=".7781" stop-color="#ff6c54"/><stop offset="1" stop-color="#ff6359"/></linearGradient><linearGradient id="SVGID_18_" gradientUnits="userSpaceOnUse" x1="99.953" x2="115.295" y1="384.963" y2="412.632"><stop offset="0" stop-color="#ffd945"/><stop offset=".3043" stop-color="#ffcd3e"/><stop offset=".8558" stop-color="#ffad2b"/><stop offset="1" stop-color="#ffa325"/></linearGradient><g><g><path d="m492.063 282.367h-358.734c-9.906 0-17.937-8.031-17.937-17.937v-196.271c0-9.906 8.031-17.937 17.937-17.937h358.734c9.906 0 17.937 8.031 17.937 17.937v196.271c0 9.906-8.031 17.937-17.937 17.937z" fill="url(#SVGID_1_)"/><path d="m136.8 123.103v86.383c0 5.006 3.561 9.223 8.455 10.274 14.697 3.157 26.398 14.378 30.253 28.805 1.23 4.602 5.361 7.826 10.125 7.826h254.126c4.764 0 8.895-3.224 10.125-7.826 3.855-14.427 15.555-25.647 30.253-28.805 4.894-1.051 8.455-5.269 8.455-10.274v-86.383c0-5.006-3.561-9.223-8.455-10.274-14.697-3.157-26.398-14.378-30.253-28.805-1.23-4.602-5.361-7.826-10.125-7.826h-254.126c-4.764 0-8.895 3.224-10.125 7.826-3.855 14.427-15.555 25.647-30.253 28.805-4.894 1.051-8.455 5.268-8.455 10.274z" fill="url(#SVGID_2_)"/><circle cx="312.696" cy="166.294" fill="url(#SVGID_3_)" r="58.069"/><path d="m115.392 224.363v40.067c0 9.906 8.031 17.937 17.937 17.937h358.734c9.906 0 17.937-8.031 17.937-17.937v-40.067z" fill="url(#SVGID_4_)"/></g><g><path d="m470.654 313.048h-358.734c-9.906 0-17.937-8.031-17.937-17.937v-196.271c0-9.906 8.031-17.937 17.937-17.937h358.734c9.906 0 17.937 8.031 17.937 17.937v196.271c0 9.907-8.031 17.937-17.937 17.937z" fill="url(#SVGID_5_)"/><path d="m115.392 153.784v86.383c0 5.006 3.561 9.223 8.455 10.274 14.697 3.157 26.398 14.378 30.253 28.805 1.23 4.602 5.361 7.826 10.125 7.826h254.125c4.764 0 8.895-3.224 10.125-7.826 3.855-14.427 15.555-25.647 30.253-28.805 4.894-1.051 8.455-5.269 8.455-10.274v-86.383c0-5.006-3.561-9.223-8.455-10.274-14.697-3.157-26.398-14.378-30.253-28.805-1.23-4.602-5.361-7.826-10.125-7.826h-254.126c-4.764 0-8.895 3.224-10.125 7.826-3.855 14.427-15.555 25.647-30.253 28.805-4.894 1.051-8.454 5.269-8.454 10.274z" fill="url(#SVGID_6_)"/><circle cx="291.287" cy="196.976" fill="url(#SVGID_7_)" r="58.069"/><path d="m93.983 255.045v40.067c0 9.906 8.031 17.937 17.937 17.937h358.734c9.906 0 17.937-8.031 17.937-17.937v-40.067z" fill="url(#SVGID_8_)"/></g><g><path d="m449.245 343.73h-358.734c-9.906 0-17.937-8.031-17.937-17.937v-196.272c0-9.906 8.031-17.937 17.937-17.937h358.734c9.906 0 17.937 8.031 17.937 17.937v196.271c.001 9.907-8.03 17.938-17.937 17.938z" fill="url(#SVGID_9_)"/><path d="m93.983 184.465v86.383c0 5.006 3.561 9.223 8.455 10.274 14.697 3.157 26.398 14.378 30.253 28.805 1.23 4.602 5.361 7.826 10.125 7.826h254.126c4.764 0 8.895-3.224 10.125-7.826 3.855-14.427 15.555-25.647 30.253-28.805 4.894-1.051 8.455-5.269 8.455-10.274v-86.383c0-5.006-3.561-9.223-8.455-10.274-14.697-3.157-26.398-14.378-30.253-28.805-1.23-4.602-5.361-7.826-10.125-7.826h-254.127c-4.764 0-8.895 3.224-10.125 7.826-3.855 14.427-15.555 25.647-30.253 28.805-4.893 1.052-8.454 5.269-8.454 10.274z" fill="url(#SVGID_10_)"/><circle cx="269.878" cy="227.657" fill="url(#SVGID_11_)" r="58.069"/><path d="m72.574 285.726v40.067c0 9.906 8.031 17.937 17.937 17.937h358.734c9.906 0 17.937-8.031 17.937-17.937v-40.067z" fill="url(#SVGID_12_)"/></g><path d="m90.511 343.73h358.734c9.906 0 17.937-8.031 17.937-17.937v-12.744h3.471c9.907 0 17.937-8.031 17.937-17.937v-7.695l-80.014-80.014c-5.768-6.401-14.122-9.427-23.417-9.427h-312.585v127.817c0 9.906 8.031 17.937 17.937 17.937z" fill="url(#SVGID_13_)"/><g><path d="m385.161 459.779h-353.645c-17.406 0-31.516-14.111-31.516-31.517v-199.77c0-17.406 14.11-31.516 31.516-31.516h353.644c17.406 0 31.516 14.11 31.516 31.516v199.771c.001 17.405-14.109 31.516-31.515 31.516z" fill="url(#SVGID_14_)"/><path d="m0 399.161v29.102c0 17.406 14.11 31.516 31.516 31.516h353.644c17.406 0 31.516-14.11 31.516-31.516v-29.102z" fill="url(#SVGID_15_)"/><path d="m0 240.817h416.677v73.817h-416.677z" fill="url(#SVGID_16_)"/><g><g><circle cx="61.678" cy="399.161" fill="url(#SVGID_17_)" r="30.741"/><circle cx="107.826" cy="399.161" fill="url(#SVGID_18_)" r="30.741"/></g><g fill="#0469bb"><path d="m379.978 391.621h-131.855c-3.182 0-5.762-2.58-5.762-5.762v-9.983c0-3.182 2.58-5.762 5.762-5.762h131.855c3.182 0 5.762 2.58 5.762 5.762v9.983c0 3.182-2.579 5.762-5.762 5.762z"/><path d="m318.201 428.208h-70.078c-3.182 0-5.762-2.58-5.762-5.762v-9.983c0-3.182 2.58-5.762 5.762-5.762h70.078c3.182 0 5.762 2.58 5.762 5.762v9.983c0 3.182-2.58 5.762-5.762 5.762z"/></g></g></g></g></svg>