<?xml version="1.0" encoding="iso-8859-1"?>
<!-- Generator: Adobe Illustrator 19.0.0, SVG Export Plug-In . SVG Version: 6.00 Build 0)  -->
<svg version="1.1" id="Capa_1" xmlns="http://www.w3.org/2000/svg" xmlns:xlink="http://www.w3.org/1999/xlink" x="0px" y="0px"
	 viewBox="0 0 512 512" style="enable-background:new 0 0 512 512;" xml:space="preserve">
<path style="fill:#FD4E26;" d="M317.026,0c-82.8,0-150,68.2-150,151s67.2,151,150,151s150-68.2,150-151S399.826,0,317.026,0z"/>
<path style="fill:#FD3018;" d="M467.026,151c0,82.8-67.2,151-150,151V0C399.826,0,467.026,68.2,467.026,151z"/>
<path style="fill:#FEDBAB;" d="M506.026,349.999l-86.999,126c-16.8,22.5-43.801,36-72.001,36h-287l-15-15v-152.7l15-12.299h24.3
	c9.6,0,19.9-3.6,27.4-9.901c19.501-17.399,45.099-25.8,69.699-25.8c4.501,0,9.3,0.3,14.101,0.901
	c27.599,3.6,43.2,13.799,62.999,31.199c2.701,2.1,6.901,3.6,9.901,3.6h78.6c16.5,0,30,13.5,30,30s-13.5,30-30,30h-91.199
	c-14.401,0-28.2,6.899-36.601,18.6c-4.799,6.899-3.3,16.199,3.3,21c6.901,4.799,16.201,3.3,21-3.3c3.001-3.9,7.5-6.301,12.301-6.301
	h101.1c5.7,0,16.5-3.6,22.2-9.6l81-100.8c10.199-11.1,27.299-12.9,39.6-3.9C513.225,317.601,515.926,336.799,506.026,349.999z"/>
<path style="fill:#787780;" d="M60.026,512h-45c-8.284,0-15-6.716-15-15V347c0-8.284,6.716-15,15-15h45V512z"/>
<circle style="fill:#FEDB41;" cx="279.53" cy="106" r="15"/>
<circle style="fill:#FCBF29;" cx="354.53" cy="196" r="15"/>
<path style="fill:#FEDB41;" d="M365.926,115.6l-48.9,58.801l-26.1,31.199c-5.099,6.301-14.7,7.2-21,1.8
	c-6.301-5.099-7.2-14.7-1.8-21l48.9-58.801l26.1-31.199c5.099-6.301,14.7-7.2,21-1.8C370.427,99.699,371.326,109.3,365.926,115.6z"
	/>
<path style="fill:#FCBF29;" d="M365.926,115.6l-48.9,58.801v-46.802l26.1-31.199c5.099-6.301,14.7-7.2,21-1.8
	C370.427,99.699,371.326,109.3,365.926,115.6z"/>
<g>
	<path style="fill:#FEC478;" d="M347.026,392h-30v-60h30c16.5,0,30,13.5,30,30S363.526,392,347.026,392z"/>
	<path style="fill:#FEC478;" d="M506.026,349.999l-86.999,126c-16.8,22.5-43.801,36-72.001,36h-30v-90h39.901
		c5.7,0,16.5-3.6,22.2-9.6l81-100.8c10.199-11.1,27.299-12.9,39.6-3.9C513.225,317.601,515.926,336.799,506.026,349.999z"/>
</g>
<g>
</g>
<g>
</g>
<g>
</g>
<g>
</g>
<g>
</g>
<g>
</g>
<g>
</g>
<g>
</g>
<g>
</g>
<g>
</g>
<g>
</g>
<g>
</g>
<g>
</g>
<g>
</g>
<g>
</g>
</svg>
