<svg id="Capa_1" enable-background="new 0 0 512 512" height="512" viewBox="0 0 512 512" width="512" xmlns="http://www.w3.org/2000/svg"><g><g><g><g><g><path d="m329.547 300.83h37.834v95.267h-37.834z" fill="#e7ecf1" transform="matrix(.707 -.707 .707 .707 -144.338 348.464)"/><path d="m501.843 501.842c-13.544 13.544-35.503 13.544-49.046 0l-106.905-106.904c-5.866-5.866-5.866-15.377 0-21.243l27.804-27.804c5.866-5.866 15.377-5.866 21.243 0l106.904 106.904c13.543 13.545 13.543 35.504 0 49.047z" fill="#aa8080"/></g><g><g><g><circle cx="196.104" cy="196.104" fill="#ffc250" r="196.196"/><circle cx="196.104" cy="196.104" fill="#f5f5f5" r="159.886"/><path d="m196.104 36.219c-10.702 0-21.156 1.06-31.269 3.066 73.33 14.541 128.616 79.22 128.616 156.82s-55.286 142.279-128.616 156.82c10.113 2.005 20.567 3.066 31.269 3.066 88.302 0 159.885-71.583 159.885-159.886.001-88.303-71.582-159.886-159.885-159.886z" fill="#eaeaea"/><g><g><g><g><g><g><g><g><g><g><g><g><g><g><g><g><g><path d="m235.337 263.554c-4.642-.582-8.132-4.514-8.151-9.192l-.179-42.555-65.02.274.179 42.555c.02 4.678-3.437 8.639-8.074 9.261 0 0-12.006 41.033 40.795 40.811 52.801-.223 40.45-41.154 40.45-41.154z" fill="#ffece3"/><path d="m255.866 152.313-3.933.017-.019-4.619-.047-11.04c-.066-15.588-6.529-30.666-18.384-40.787-9.294-7.935-22.342-14.84-39.539-14.96-17.195.264-30.184 7.279-39.411 15.293-11.769 10.221-18.105 25.352-18.039 40.94l.047 11.04.019 4.619-3.933.017c-5.766.024-10.421 4.718-10.396 10.485l.049 11.57c.024 5.766 4.718 10.421 10.485 10.396l3.949-.017c.389 15.151 6.818 29.709 18.363 39.565 9.295 7.935 22.342 14.84 39.539 14.96 17.195-.264 30.184-7.28 39.411-15.293 11.462-9.953 17.767-24.565 18.029-39.719l3.949-.017c5.766-.024 10.421-4.718 10.396-10.485l-.049-11.57c-.026-5.765-4.72-10.419-10.486-10.395z" fill="#ffece3"/><path d="m266.35 162.709c-.024-5.766-4.718-10.421-10.485-10.396l-3.933.017-.019-4.619-.047-11.04c-.066-15.588-6.529-30.666-18.384-40.787-7.598-6.487-17.706-12.28-30.536-14.246l.154 103.142c-.261 15.154-6.567 29.765-18.029 39.719-4.247 3.689-9.303 7.156-15.188 9.86 7.027 3.23 15.244 5.366 24.731 5.432 17.195-.264 30.184-7.28 39.411-15.293 11.462-9.953 17.767-24.565 18.029-39.719l3.949-.017c5.766-.024 10.421-4.718 10.396-10.484z" fill="#ffddce"/><path d="m196.104 355.99c47.921 0 90.909-21.089 120.21-54.487-4.211-11.198-12.763-20.509-24.111-25.505-14.897-6.557-43.022-10.707-56.867-12.444l-40.515 25.579-40.729-25.236c-13.83 1.854-41.919 6.24-56.76 12.923-10.402 4.684-18.408 13.002-22.831 23.05 29.323 34.336 72.91 56.12 121.603 56.12z" fill="#8c9ba6"/><path d="m292.204 275.998c-4.68-2.06-10.666-3.882-17.103-5.466-22.112 41.957-62.331 72.888-110.265 82.392 10.113 2.005 20.567 3.066 31.269 3.066 47.737 0 90.58-20.929 119.876-54.102.111-.127.223-.259.334-.385-4.211-11.198-12.763-20.509-24.111-25.505z" fill="#7c8b96"/></g></g></g></g></g></g><path d="m216.396 77.394-45.345.191c-8.278.035-15.29 5.371-17.843 12.778-.957 2.777-3.595 4.621-6.532 4.633-10.553.044-19.072 8.635-19.027 19.188l.168 39.844s16.766-.27 22.46 5.299c1.197 1.171 3.208.333 3.201-1.341l-.11-26.192c-.038-9.094 7.303-16.498 16.397-16.536 7.224.075 16.038 4.257 25.356 3.594 5.138-.022 10.209-.968 15.103-2.533 1.589-.498 4.403-1.14 8.187-1.266 9.094-.038 16.498 7.303 16.536 16.397l.11 26.192c.007 1.674 9.987 2.462 11.174 1.281 5.647-5.617 14.453-5.454 14.453-5.454l-.136-32.292c-.101-24.283-19.87-43.885-44.152-43.783z" fill="#aa8080"/><path d="m260.549 121.177c-.102-24.283-19.871-43.885-44.153-43.783l-13.455.057.06 40.667c4.223-.602 8.833-2.919 15.411-3.066 9.094-.038 16.498 7.303 16.536 16.397l.11 26.192c.007 1.674 9.987 2.462 11.174 1.281 5.647-5.616 14.453-5.454 14.453-5.454z" fill="#9d6b6b"/></g><g fill="#7c8b96"><path d="m126.009 268.565 26.451 28.899c4.952 5.411 12.914 6.835 19.435 3.477l22.926-11.807-40.729-25.236c-6.932.928-17.448 2.494-28.083 4.667z"/><path d="m263.458 267.985-26.19 29.166c-4.913 5.471-12.886 6.963-19.445 3.639l-23.001-11.658 40.515-25.578c6.94.871 17.469 2.348 28.121 4.431z"/></g></g><path d="m196.104 355.99c6.833 0 13.558-.454 20.165-1.286l-8.432-34.977-25.794.109-8.036 34.618c7.224 1 14.597 1.536 22.097 1.536z" fill="#fc8086"/><path d="m216.16 354.729c.036-.006.073-.02.109-.025l-4.599-19.076c-11.456 6.426-23.784 11.478-36.762 14.942l-.902 3.884c.007.001.014.004.021.005 7.217 1 14.584 1.53 22.077 1.53 6.795.001 13.485-.437 20.056-1.26z" fill="#fb636f"/></g></g></g></g></g></g></g></g></g><g><path d="m217.823 300.79-23.002-11.658-22.926 11.807c-.04.021-.082.036-.122.057l10.27 18.84 25.794-.109 10.127-18.873c-.047-.023-.095-.04-.141-.064z" fill="#fb636f"/></g></g></g></g></g></g></g></g></svg>