<svg height="512" viewBox="0 0 192 192" width="512" xmlns="http://www.w3.org/2000/svg" xmlns:xlink="http://www.w3.org/1999/xlink"><linearGradient id="New_Gradient_Swatch_1" gradientUnits="userSpaceOnUse" x1="59.139" x2="100.861" y1="57.718" y2="15.995"><stop offset="0" stop-color="#ff85a6"/><stop offset="1" stop-color="#ffdc68"/></linearGradient><g id="_15-slot" data-name="15-slot"><g id="Flat"><path d="m176 128h-24v-16h16v-64a8 8 0 0 1 8-8h16v16h-8v64a8 8 0 0 1 -8 8z" fill="#fff2c6"/><path d="m72 40h16v40h-16z" fill="#fff2c6"/><path d="m109.625 25.375a4 4 0 0 0 -3.069-2.7l-15.5-2.9-7.543-13.837a4 4 0 0 0 -7.026 0l-7.544 13.844-15.5 2.9a4 4 0 0 0 -2.17 6.681l10.837 11.45-2.035 15.635a4 4 0 0 0 5.684 4.129l14.241-6.766 14.241 6.766a4 4 0 0 0 5.684-4.129l-2.035-15.635 10.836-11.453a4 4 0 0 0 .899-3.985z" fill="url(#New_Gradient_Swatch_1)"/><rect fill="#ffdc68" height="96" rx="8" width="160" y="72"/><path d="m24 152a8 8 0 0 1 -8-8v-72h-8a8 8 0 0 0 -8 8v80a8 8 0 0 0 8 8h144a8 8 0 0 0 8-8v-8z" fill="#ffd342"/><path d="m64 96h32v48h-32z" fill="#fff6d9"/><path d="m112 96h32v48h-32z" fill="#fff6d9"/><path d="m16 96h32v48h-32z" fill="#fff6d9"/><g fill="#ffdc68"><circle cx="32" cy="120" r="8"/><circle cx="80" cy="120" r="8"/><circle cx="128" cy="120" r="8"/></g></g></g></svg>