<svg id="Capa_1" enable-background="new 0 0 512 512" height="512" viewBox="0 0 512 512" width="512" xmlns="http://www.w3.org/2000/svg"><g><g><g><g><path d="m119.815 61.518 35.573 35.573c8.595 8.595 20.91 12.34 32.835 9.986l19.42-3.834c10.463-2.066 21.306.554 29.671 7.17l53.146 46.786-139.141 142.171-47.201-47.201c-7.464-7.464-11.326-17.797-10.587-28.327l1.915-27.275c.739-10.53-3.122-20.863-10.587-28.327l-35.883-35.883z" fill="#ffcebf"/></g><path d="m290.46 157.199-53.144-46.791c-8.367-6.608-19.214-9.231-29.675-7.16l-19.415 3.829c-11.932 2.353-24.252-1.395-32.852-9.994l-35.729-35.729-14.089 14.089 44.955 44.955c8.592 8.592 20.902 12.335 32.823 9.98l19.423-3.837c8.85-1.745 20.205 2.094 28.555 7.32 2.206 1.381 4.256 2.991 6.158 4.767l37.176 34.725z" fill="#ffb09e"/><path d="m12.817 36.574h100.179v77.749h-100.179z" fill="#fec165" transform="matrix(-.707 .707 -.707 -.707 160.739 84.316)"/><path d="m81.316 8.201h19.928v77.749h-19.928z" fill="#fea613" transform="matrix(-.707 .707 -.707 -.707 189.113 15.818)"/></g></g><g><g><g><path d="m392.59 61.111-35.98 35.98c-8.595 8.595-20.91 12.34-32.835 9.986l-19.42-3.834c-10.463-2.066-21.306.554-29.671 7.17l-53.146 46.786 139.141 142.171 47.201-47.201c7.464-7.464 11.326-17.797 10.587-28.327l-1.915-27.275c-.739-10.53 3.122-20.863 10.587-28.327l36.29-36.29z" fill="#f6a96c"/></g><g><path d="m427.135 168.24c-7.465 7.465-11.321 17.794-10.587 28.33l1.923 27.275c.734 10.525-3.122 20.865-10.588 28.319l-47.209 47.209-16.657-17.019 37.832-37.521c7.806-7.806 11.849-18.611 11.073-29.612l-2.006-28.516c-.775-11.011 3.267-21.816 11.073-29.612l43.111-43.494 18.342 18.332z" fill="#ea9b58"/></g><path d="m399.001 36.574h100.179v77.749h-100.179z" fill="#46cc8d" transform="matrix(.707 .707 -.707 .707 184.886 -295.457)"/><path d="m462.479 62.867h25.81v77.749h-25.81z" fill="#00c27a" transform="matrix(.707 .707 -.707 .707 211.179 -306.348)"/></g></g><g><g><g><path d="m118.453 451.842 36.935-36.935c8.595-8.595 20.91-12.34 32.835-9.986l19.42 3.834c10.463 2.066 21.306-.554 29.671-7.17l90.829-84.469-139.141-142.17-84.885 84.885c-7.464 7.464-11.326 17.797-10.587 28.327l1.915 27.275c.739 10.53-3.122 20.863-10.587 28.327l-37.245 37.245z" fill="#d88a55"/></g><path d="m328.143 317.117-90.827 84.474c-8.367 6.608-19.214 9.231-29.675 7.16l-19.415-3.829c-11.932-2.353-24.252 1.395-32.852 9.994l-36.924 36.924-14.089-14.089 46.15-46.15c8.592-8.592 20.902-12.335 32.823-9.98l19.423 3.837c8.85 1.745 20.205-2.094 28.555-7.32 2.206-1.381 4.256-2.991 6.158-4.767l74.86-72.409z" fill="#c57a44"/><path d="m12.817 397.676h100.179v77.749h-100.179z" fill="#5f99d7" transform="matrix(-.707 -.707 .707 -.707 -201.299 789.721)"/><path d="m81.316 426.049h19.928v77.749h-19.928z" fill="#3c87d0" transform="matrix(-.707 -.707 .707 -.707 -172.926 858.219)"/></g></g><g><g><path d="m338.931 196.145c-11.583 6.201-15.505 20.905-8.549 32.051l-87.905-87.701c-7.989-7.989-20.942-7.989-28.931 0-7.252 7.252-7.898 18.583-1.983 26.59l-10.575-10.575c-7.989-7.989-20.942-7.989-28.931 0-7.989 7.989-7.989 20.942 0 28.931l32.95 32.95c-8.033-7.166-20.348-6.918-28.057.791-7.989 7.989-7.989 20.942 0 28.931l42.524 42.524c-7.285-7.285-19.097-7.285-26.382 0s-7.285 19.097 0 26.382l77.583 77.583c7.517 7.517 17.924 11.406 28.528 10.661l27.468-1.929c10.605-.745 21.011 3.145 28.528 10.661l39.207 39.207 71.34-71.339-38.896-38.893c-8.656-8.656-12.428-21.058-10.056-33.067l3.862-19.558c2.08-10.537-.558-21.457-7.221-29.882l-44.417-56.162c-6.287-10.258-19.481-13.834-30.087-8.156z" fill="#fed2a4"/><path d="m369.014 204.301 44.425 56.16c6.655 8.426 9.296 19.35 7.211 29.885l-3.857 19.553c-2.371 12.02 1.396 24.415 10.054 33.073l38.895 38.895-14.188 14.188-48.165-48.165c-8.659-8.659-12.433-21.061-10.062-33.066l3.864-19.56c2.078-10.542-3.71-24.614-10.373-33.032l-31.993-43.743c-5.635-9.176-16.799-13.003-26.689-9.627 1.786-5.252 5.492-9.874 10.797-12.718 10.603-5.679 23.801-2.1 30.081 8.157z" fill="#ffbd86"/><g><g fill="#ffbd86"><path d="m337.196 244.792-.006.006c-2.788 2.901-7.413 2.951-10.265.112l-91.442-91.053c-3.996-3.986-9.229-5.984-14.461-5.984-4.769 0-9.527 1.658-13.359 4.964.464-4.501 2.431-8.889 5.881-12.339 3.996-3.996 9.229-5.994 14.461-5.994 5.243 0 10.475 1.998 14.471 5.994l94.609 94.208c2.781 2.77 2.83 7.257.111 10.086z"/><path d="m308.611 274.312c-2.81 2.81-7.366 2.81-10.176 0l-104.439-104.439c-7.632-7.622-19.786-7.962-27.82-1.02.464-4.511 2.431-8.889 5.881-12.339 7.982-7.993 20.939-7.993 28.932 0l107.622 107.622c2.81 2.81 2.81 7.366 0 10.176z"/><path d="m279.721 303.203c-2.81 2.81-7.366 2.81-10.176 0l-70.656-70.656c-3.996-3.996-9.239-5.994-14.471-5.994-4.758 0-9.517 1.658-13.348 4.975.464-4.511 2.431-8.899 5.881-12.349 3.996-3.986 9.229-5.984 14.471-5.984 5.232 0 10.465 1.998 14.461 5.984l73.839 73.849c2.809 2.809 2.808 7.365-.001 10.175z"/></g><g><path d="m250.571 332.132-.002.001c-2.826 2.708-7.298 2.661-10.066-.106l-28.03-28.021c-6.777-6.788-17.479-7.261-24.802-1.401.278-4.367 2.081-8.641 5.418-11.968 7.282-7.282 19.096-7.282 26.388 0l31.203 31.212c2.852 2.853 2.803 7.492-.109 10.283z" fill="#ffbd86"/></g></g><path d="m398.202 396.956h100.889v78.3h-100.889z" fill="#fe4fb7" transform="matrix(-.707 .707 -.707 -.707 1074.261 427.237)"/><path d="m467.186 368.381h20.069v78.3h-20.069z" fill="#fe2aa8" transform="matrix(-.707 .707 -.707 -.707 1102.835 358.253)"/></g></g></g></svg>